<svg id="Layer_1" data-name="Layer 1" xmlns="http://www.w3.org/2000/svg" viewBox="0 0 1920 1085"><title>mascara-teste</title><path d="M687.57,570.29a52.64,52.64,0,0,0,5.59,2.7c.54-.79,1-1.39,1.36-2,3.11-4.67,6.24-9.34,9.31-14,1-1.54,2.86-3.47,2.51-4.71-.48-1.73-2.64-3-4.16-4.42-.25-.23-1,.07-1.28-.16-6.43-5.17-13.95-8.63-20.65-13.39-5-3.58-10.75-6.15-16-9.41-1.69-1-2.57-.41-3.33.72-1.42,2.14-2.56,4.46-3.95,6.62-2.1,3.27-4.42,6.41-6.47,9.71-2.25,3.62-2.07,3.55,1.68,5.8,6.45,3.87,12.82,7.87,19.16,11.92C676.78,563.12,682.11,566.8,687.57,570.29Z" transform="translate(0)"/><path d="M681.35,502.55c4.84,2.64,9.62,5.58,14.32,8.53,8.58,5.38,16.87,11.21,25.25,16.9a1.8,1.8,0,0,0,2.83-.59q5.87-8.53,11.62-17.14a14.66,14.66,0,0,0,.9-2.63c-1.33-1.22-2.48-2.87-4.49-4.06-4.61-2.74-9-5.81-13.59-8.62-7.63-4.69-14.94-9.88-23.09-13.76-2.34-1.11-3.27-.74-4.34.77-1.6,2.27-2.87,4.76-4.41,7.08-2,3.06-4.33,6-6.21,9.1C679.24,499.64,678.29,500.88,681.35,502.55Z" transform="translate(0)"/><path d="M771.6,506.37c2.09,3.69,3.65,7.66,5.61,11.41a12,12,0,0,0,2.45,2.56c5.1-2.38,9.73-4.48,14.3-6.71,1.63-.8.16-1.51-.15-2.43-2.94-8.58-9.15-15.37-12.78-23.57-.69-1.56-2.47-2.67-3.83-3.89a1.66,1.66,0,0,0-1.42-.06c-4.09,1.73-8.22,3.4-12.2,5.36-1.93.95-2.08,2.32-.66,3.73C766.84,496.66,769,501.7,771.6,506.37Z" transform="translate(0)"/><path d="M0,0V1080l999,5L940,0ZM938.16,557.43a32.84,32.84,0,0,1-6.91,11.51c-4.37,4.64-7.21,10.77-13.38,13.75A27.14,27.14,0,0,0,912.1,587c-6.42,5.59-13.85,9.71-20.9,14.38-9.91,6.56-19.94,12.92-29.67,19.74-5.42,3.81-10,8.82-15.53,12.47-6.8,4.5-11.26,11.49-18.18,15.83A14.67,14.67,0,0,0,822.2,656c-1,2.35-3.7,4-5.66,5.92-6.16,6.09-10.84,13.36-16.18,20.1-13.1,16.55-23.64,34.8-35.7,52-6.71,9.56-14.73,18.22-24.52,24.8a45.84,45.84,0,0,1-15.82,6.69,62.25,62.25,0,0,1-10.48,1.28c-2.12.1-4.36,1.57-6.29,1.19-10-2-20.24-2-30.24-5s-19.72-6.69-29.44-10.48c-13.93-5.43-25.84-14.26-38.34-22.07-3.94-2.46-6.89-6.45-10.75-9.07-6.47-4.38-11.44-10.27-16.85-15.71-9.14-9.21-18.48-20.82-28-37.2a296.48,296.48,0,0,1-13.78-26.68,156.09,156.09,0,0,1-8.39-24.1c-2.15-7.94-3.39-16-5.4-23.91-1-4-.5-8-1.31-11.85-2.61-12.4-.69-24.88-1.18-37.31-.12-3,.93-6,1.26-9.07.32-2.83-.7-5.86,1.41-8.38-.22-5.55,1.47-10.77,2.74-16.07a178.93,178.93,0,0,1,8.49-27.47c2.84-6.84,5.43-13.82,9.08-20.34,5-8.82,10.27-17.37,15.88-25.83,9.48-14.29,21.76-25.82,34-37.42,9-8.54,19.43-15.4,30.14-21.78a160.21,160.21,0,0,1,19.81-10.36c9.38-3.94,18.56-8.54,28.77-10.4a35.82,35.82,0,0,0,9.06-2.9c3.14-1.56,6.36-.58,9.49-2.14,3.35-1.66,7.74-1.2,11.67-1.71,3.25-.42,6.49-1.1,9.76-1.32s7.14.76,10.26-.25a24.72,24.72,0,0,1,12.53-1c6.27,1.31,12.61.33,18.71,1.37,8.55,1.46,17.25,2.1,25.66,4.43,8,2.22,15.93,4.71,23.86,7.19a145.61,145.61,0,0,1,24.58,10.43,214.53,214.53,0,0,1,28.48,17.82c10.23,7.67,20.08,15.67,28.85,25,2.91,3.07,5.42,6.52,8.34,9.59s4.68,6.95,7.41,10a90.4,90.4,0,0,1,10.9,15.53c4.06,7,8.82,13.56,11.15,21.54,1.41,4.82,4.65,9.09,6.43,13.84a147.09,147.09,0,0,1,5.79,18.25c.77,3.34,1.7,6.62,2.66,9.91.9,3.1,0,6.42,1.26,9.8,1.14,3,.24,6.8.24,11.29C943.31,541.56,940.85,549.59,938.16,557.43Z" transform="translate(0)"/><path d="M806.83,476.18a6.72,6.72,0,0,0-2.93-2.67c-.66-.25-1.81.91-2.79,1.31-3.33,1.36-6.66,2.73-10,4-2.62,1-3.07,2.18-1.52,4.63a2.73,2.73,0,0,0,.34.54c6,5.89,9,13.68,13.44,20.55.82,1.27,1.5,2.77,2.65,3.65.9.69,2.94,1.24,3.56.73,3.44-2.8,7.84-3.31,11.6-5.29.51-.27,1.05-.51,1.74-.85-.4-.79-.65-1.38-1-1.91C816.9,492.61,811.92,484.36,806.83,476.18Z" transform="translate(0)"/><path d="M813.09,548.47c-2.94-5.66-5.58-11.5-8.9-16.92-1.23-2-2.52-4-3.62-6.1-.79-1.51-1.86-1.6-3-.26a8.41,8.41,0,0,0-1.14,1.59c-5.34,11-13.41,19.94-21.3,29s-17.13,16.6-26.61,23.79a168.93,168.93,0,0,1-18.81,12.54c-5.18,2.93-10.5,5.87-15.56,9.14-3.64,2.36-8.4,2.9-12.44,4.74-11.43,5.2-27.11,8.9-34.84,10.57-2.33.51-4.65,1.05-7,1.35s-3.53,2-2.11,3.88c4.13,5.53,6.78,11.92,10.57,17.65.71,1.07,1.28,2.25,2.07,3.26,1.07,1.39,2,1.07,3.85.64,4.18-1,8.28-2.24,12.45-3.21a127.81,127.81,0,0,0,18.22-5.89c6.88-2.75,13.65-5.85,20.41-8.89a144.46,144.46,0,0,0,17.38-9.51,218.71,218.71,0,0,0,18.79-12.91c6.43-5,13.3-9.45,19.08-15.27,4.2-4.23,8.34-8.53,12.67-12.63,7.62-7.24,13.77-15.66,19.93-24.1.32-.45.69-.87,1-1.28A6.71,6.71,0,0,1,813.09,548.47Z" transform="translate(0)"/><path d="M1187,614c-1.12-2.3-.54-4.54-.52-6.75s-1-4.4-1-6.59c-.05-3.4-1.35-6.46-2.09-9.66-1.17-5-3.12-10-6.31-13.81-4.47-5.29-9.1-10.76-15.61-14-1-.47-1.8-1.25-2.78-1.73-4.71-2.3-9.33-4.84-14.21-6.72-3.18-1.21-7-.87-10.06-2.25-3.55-1.6-7.26-.15-10.82-1.67-2.25-1-5.37-.66-7.89,0-2.67.65-4.58-1.88-7.46-.76-2.08.81-4.86-.34-7.32-.34q-28.75-.07-57.5,0h-10.5c-2.51,0-2.51,0-2.54,2.74,0,.84,0,1.67,0,2.5v65.49q0,33.74,0,67.48c0,3.78,0,3.78,4,3.79h24c7.5,0,15-.28,22.49.08s15-1.17,22.59-1.15a76.84,76.84,0,0,0,14.55-1.09c2.56-.49,5.19-.3,7.59-.95,4.78-1.29,9.69-2.14,14.38-3.84a97.85,97.85,0,0,0,17.1-8.23c3.45-2.09,6.26-5.11,9.54-7.23,4.16-2.69,6.26-6.93,9.55-10.2,2.5-2.48,3.28-6.61,5.29-9.69a26.54,26.54,0,0,0,3.53-10c.67-3.75,1.76-7.52,1.45-11.47a83.45,83.45,0,0,1,0-9.49C1186.43,617,1187.49,615.14,1187,614Z" transform="translate(0)"/><path d="M1032.11,506.72a4.17,4.17,0,0,1,.5,0h25c8.16,0,16.33.16,24.49-.05s16.41.76,24.61-.84c4.09-.79,8.36-.07,12.6-.93,3.23-.65,6.43-1.43,9.63-2.19a56.38,56.38,0,0,0,21.1-10.48c6.72-5.16,12.17-11.7,14.73-20.3a110,110,0,0,0,3.51-15c.32-2.12-.44-4.49.19-6.45s-.24-3.82-.16-5.72a52.36,52.36,0,0,0-1.86-17.7,38.46,38.46,0,0,0-6-12.47c-5.79-7.42-13.84-11.86-22.73-14.91-6.63-2.27-13.6-2.54-20.37-3.9a28.72,28.72,0,0,0-5.49,0h-5.5c-1.76,0-3.56.2-5.09-1-1.55,1.57-3.11-.09-4.67-.09-21.33.13-42.66.09-64,.1-2.25,0-2.28,0-2.28,2.5q0,26.49,0,53v25.5c0,9.66,0,19.33,0,29C1030.29,506.08,1030.43,507,1032.11,506.72Z" transform="translate(0)"/><path d="M893,0,999,1085l921-5V0Zm347.2,625.73a97.41,97.41,0,0,1-3.58,22.43,107.48,107.48,0,0,1-8.34,22.56,118,118,0,0,1-10.12,15.84,115.2,115.2,0,0,1-32.75,28.24c-4.57,2.64-9.27,5-14,7.32a136,136,0,0,1-21.84,7.64c-5.23,1.12-10.4,2.45-15.74,3.12-2.18.28-4.37.71-6.6.88-2,.15-4,.77-6.09.92-2.32.17-4.8-.45-7,.13-6.68,1.79-13.42.82-20.11.85-36.49.13-73,.06-109.48.06-1.33,0-2.67-.05-4,0-1.16.06-1.35-.54-1.3-1.52.07-1.16,0-2.33,0-3.5V354.82c0-4.09,0-4.1,4.19-4.1q63.24,0,126.47,0c3.37,0,6.72.76,10.09.92s7.12-.52,10.46.2,6.9.16,10.08,1c4.4,1.16,9.24.24,13.29,2.85,4.49,0,8.76,1.56,12.69,3.17,8,3.29,16,6.59,23.17,11.67a85.54,85.54,0,0,1,17.92,16.92c4,5,6.5,10.51,8.78,16.38a100.07,100.07,0,0,1,4.08,14.84c.54,2.42.2,4.86.88,7.1,1.62,5.34,1,10.76.8,16.1a83.75,83.75,0,0,1-2.64,17.32,82.11,82.11,0,0,1-16.72,33.63,77.42,77.42,0,0,1-7.88,8.68,92.23,92.23,0,0,1-20.46,14.53,43.76,43.76,0,0,0-4.81,2.85,3.06,3.06,0,0,0-1.3,1.91c-.1,1.32,1.14.68,1.81.91,7.12,2.53,14.35,4.77,21,8.4a110,110,0,0,1,15.69,10.49,90.5,90.5,0,0,1,8.67,7.9,82.32,82.32,0,0,1,16.2,24.27,77.21,77.21,0,0,1,5.63,17.68c.76,4.39,1.24,8.83,2.08,13.15C1241,611,1240.4,618.39,1240.2,625.73Zm196.16-126.25v144a21.59,21.59,0,0,1-.86,6.63c-.66,2.13.7,5.15-.35,6.82-1.34,2.11.48,4.77-1.79,6.31.06,5.63-2.16,10.7-4,15.82-1.75,4.78-3.27,9.68-6.51,13.82-1.42,1.8-2.16,4.13-3.49,6-1.65,2.36-3.59,4.52-5.39,6.78a47.61,47.61,0,0,1-3.58,4.49,53.53,53.53,0,0,1-5.21,4.27c-1.79,1.38-3.37,3-5.1,4.44a84.86,84.86,0,0,1-18.84,11.41,100.33,100.33,0,0,1-18.78,6.61c-3.12.73-6.31,1.56-9.42,2.49-2.5.75-5.3.85-8,1.32a21.11,21.11,0,0,1-5.74.52c-1.62-.17-3,.68-4.51.55-2-.17-4,0-6,0h-11.5c-1.83,0-3.66,0-5.5,0-5,.08-10-1.73-15.08-1-2.89-1.61-6-.75-9.08-1-1.88-.17-3.72-.74-5.59-.94s-3.76.09-5.65-.91c-1.17-.63-3,0-4.43-.16-1.22-.14-2.39-.88-3.59-.9a28.62,28.62,0,0,1-5.61-1c-1.83-.42-3.8,0-5.59-1.05-.76-.45-2-.1-2.71-.61-.4-.31-.1-1.56-.1-2.39q0-21.75,0-43.49c0-2.68,0-2.76,2.73-2.52a29.75,29.75,0,0,1,3.59,1c7.43,1.64,14.41,5,22,6,2.76,2,6.26,1.59,9.33,2.82,2.86,1.16,6.32.85,9.51,1.18s6.38.8,9.59,1,6.34-.15,9.49.1c3,.23,5.72-.79,8.59-1.07,2.7-.26,5.57.83,8.09-1,2.82.74,5.36-.82,8.07-1.09a22.25,22.25,0,0,0,7.15-2c7.33-3.45,14.73-6.89,19.9-13.51a47.64,47.64,0,0,0,7.84-15.23,97.81,97.81,0,0,0,3.32-17.19c.93-7.74-.17-15.52,1-23.08s.73-15.09.74-22.61q.17-102,.07-204c0-1.34,0-2.67,0-4,.06-1.11-.42-1.43-1.46-1.37s-2.33,0-3.5,0h-73.49c-3.55,0-3.57,0-3.57-3.72q0-17.25,0-34.5c0-2.75,0-2.78,2.51-2.78h128c2.47,0,2.5,0,2.5,2.79q0,21.74,0,43.49Z" transform="translate(0)"/></svg>