<svg id="Layer_1" data-name="Layer 1" xmlns="http://www.w3.org/2000/svg" viewBox="0 0 1549.82 657.23"><title>teste</title><path d="M1714,566.51v13.92q0,37-3.87,64.57t-16.39,49.41a107.75,107.75,0,0,1-44.85,46.32q-29.55,16.32-65.42,18.33h-13.92q-70.68,0-106.87-39.36t-36.19-113.91h108.88q0,20.73,7.27,35.73t24.44,15l2.47-1.39q20.42,0,26.68-15.47t6.26-39V300.5H1714Z" transform="translate(-164.72 -165.43)" fill="none" stroke="#000" stroke-miterlimit="10"/><path d="M1056.88,751.24v-451h153.27q109.65,0,133,75.93,5.1,15.17,5.11,38.05t-5.11,38q-11.13,33.57-50.73,54.44,55.68,20.12,69.75,60.78,7.57,20.73,7.58,45.63a188,188,0,0,1-3.86,38,132.34,132.34,0,0,1-28.62,54.28A124.15,124.15,0,0,1,1287.48,741a165.21,165.21,0,0,1-41,8.35q-22.42,1.86-54.13,1.85ZM1163.29,475c2,0,5.36.21,10.2.62s8.61.61,11.29.61q64.65,0,64.65-36.65v-5.1q-.78-24.9-19.18-32.71T1182.31,394h-19Zm0,182.49q4.17,0,14.69.62t15.62.62q31.86,0,50.19-9.74t18.32-39.75v-4.95q-.78-25.67-20.18-34.41t-49.57-8.74h-29.07Z" transform="translate(-164.72 -165.43)" fill="none" stroke="#000" stroke-miterlimit="10"/><path d="M819.75,456.84c1.36,11.69-2.49,24.26-6.7,36.51a51.32,51.32,0,0,1-10.8,18c-6.83,7.24-11.29,16.84-20.92,21.49-3.33,1.61-6.2,4.3-9,6.77-10,8.75-21.66,15.2-32.69,22.5-15.49,10.25-31.19,20.21-46.39,30.87-8.49,6-15.68,13.79-24.3,19.5-10.63,7-17.6,18-28.42,24.75a22.86,22.86,0,0,0-8.79,10.19c-1.62,3.68-5.79,6.24-8.85,9.26-9.65,9.52-17,20.88-25.32,31.44-20.47,25.88-36.95,54.41-55.83,81.33-10.48,14.95-23,28.5-38.34,38.78a71.27,71.27,0,0,1-24.75,10.46,97.08,97.08,0,0,1-16.38,2c-3.32.16-6.81,2.46-9.84,1.86-15.66-3.1-31.65-3.09-47.29-7.76s-30.84-10.47-46-16.39c-21.78-8.49-40.4-22.31-60-34.52-6.16-3.84-10.77-10.09-16.81-14.18-10.11-6.85-17.9-16.06-26.35-24.57-14.3-14.4-28.9-32.57-43.87-58.18a460.87,460.87,0,0,1-21.54-41.72,242.85,242.85,0,0,1-13.14-37.69c-3.35-12.42-5.3-25-8.43-37.4-1.59-6.28-.78-12.52-2.05-18.52-4.09-19.4-1.09-38.93-1.85-58.37-.18-4.69,1.45-9.43,2-14.18.49-4.41-1.1-9.15,2.19-13.1-.34-8.68,2.31-16.84,4.29-25.13,3.48-14.62,7.52-29.12,13.27-43,4.45-10.69,8.5-21.61,14.21-31.8,7.75-13.81,16.07-27.17,24.83-40.4,14.82-22.35,34-40.39,53.1-58.53,14-13.35,30.39-24.09,47.13-34,10.05-6,20.28-11.72,31-16.21,14.67-6.16,29-13.35,45-16.27a55.6,55.6,0,0,0,14.18-4.54c4.9-2.43,9.94-.9,14.84-3.33,5.23-2.6,12.1-1.88,18.24-2.68,5.09-.66,10.15-1.72,15.26-2.06,5.36-.36,11.17,1.18,16.05-.39,6.63-2.13,13.36-2.85,19.6-1.55,9.81,2,19.73.52,29.27,2.14,13.37,2.28,27,3.29,40.12,6.93,12.53,3.47,24.91,7.37,37.32,11.24a228.86,228.86,0,0,1,38.44,16.32,334.85,334.85,0,0,1,44.54,27.86c16,12,31.41,24.5,45.12,39,4.55,4.81,8.48,10.21,13,15s7.33,10.87,11.6,15.58c6.75,7.46,12.11,15.83,17.05,24.3,6.34,10.88,13.79,21.2,17.44,33.68,2.2,7.54,7.27,14.21,10.05,21.64a229.2,229.2,0,0,1,9,28.55c1.2,5.23,2.66,10.35,4.16,15.49,1.4,4.85,0,10,2,15.34C821.16,443.9,819.75,449.81,819.75,456.84ZM397.67,629.24c1.28-.93,2.4-2.44,3.45-2.39,10.15.45,19-4.62,28.49-6.79,8-1.83,15.68-5.33,23.36-8.45,12-4.85,24.42-9,35.52-15.4,6.91-4,14-8,20.84-12.32,17.82-11.45,35.35-23.43,51-37.49,19.43-17.45,37.92-36.09,53.48-57.31,1.81-2.46,4.71-4.86,5-7.51.26-2.42-2.31-5.17-3.69-7.74-3.78-7-7.14-14.38-11.58-21a94.18,94.18,0,0,1-5.66-9.54c-1.22-2.35-2.93-2.47-4.66-.38a13.76,13.76,0,0,0-1.77,2.49c-8.38,17.12-21,31.2-33.33,45.33s-26.78,26-41.62,37.19c-9.34,7.08-18.28,15.11-29.65,19.2-5.64,6.18-13.89,8.16-20.64,12.62s-15.28,6.36-22.87,9.61c-18.1,7.77-42,13.74-54.53,16.42-3.64.78-7.27,1.64-10.95,2.11s-5.49,3.09-3.27,6.07c6.45,8.65,10.57,18.67,16.52,27.61,1.31,2,2.56,4,4,5.85A11.1,11.1,0,0,0,397.67,629.24ZM382,440.78c-1.52,1.64-3.22,2.71-3.75,4.19a35.81,35.81,0,0,1-5.47,9.63,150.55,150.55,0,0,0-9.68,15.33c-2.74,4.66-2.48,6.13,1.38,8.16A422.65,422.65,0,0,1,415,509.51a70.84,70.84,0,0,0,11.19,6.76c2.16,1,4,1.67,6.16-2.37,5-9.53,11.81-18.1,17.83-27.11.35-.54.41-1.88,0-2.19a79.3,79.3,0,0,0-8.08-6.45c-10.67-7.08-21.33-14.22-32.23-20.95-7.95-4.9-16.28-9.17-24.41-13.78A33.41,33.41,0,0,1,382,440.78Zm115-23.29c-.74-4.3-3.53-6.42-6.42-8.27-4.78-3.05-9.87-5.64-14.57-8.82-13.34-9-26.84-17.76-40.88-25.64-5.33-3-8.34-2.63-10.93,2.57-4.24,8.52-9.87,16-15.18,23.76-1.3,1.9-2.46,4.4,2,6.24,5.81,2.37,10.48,7.35,16.09,10.38,15.67,8.48,30,19,45,28.51,3.27,2.09,4.63,2.09,6.7-1.06,5.34-8.14,10.61-16.34,15.92-24.51C495.6,419.56,496.37,418.5,497.08,417.49ZM632.8,407a26.48,26.48,0,0,1-2-2.66c-4.84-8.38-9.45-16.9-14.51-25.14-3.19-5.2-7-10-10.62-14.94-.64-.87-2.38-2-2.92-1.69-7.05,3.8-14.72,6-22.05,9.06-1.48.61-2.79,2-.52,3.8.9.73.76,2.68,1.63,3.55,9,9,13.7,20.85,20.2,31.47,1.25,2,2.33,4.3,4.14,5.67,1.48,1.12,4.58,2.26,5.57,1.52,5.79-4.3,12.72-5.74,19.11-8.48C631.55,408.81,632,407.83,632.8,407Zm-72.63-30.13c-.5.51-.91,1.32-1.5,1.49-4.8,1.36-8.52,5.3-13.9,5.5-1.77.07-3.58,1.72-5.17,2.93s-3.24,2.93-1,5.15c7.37,7.26,11.21,16.77,16.12,25.57,2.58,4.61,4.22,9.74,6.79,14.35.85,1.53,3.82,3.44,4.94,3,7-2.85,13.89-6.24,20.72-9.63,1.59-.79,1.41-1.75.55-3.83-5.49-13.35-14.5-24.71-20.83-37.57C565.56,381.05,562.48,379.16,560.17,376.85Z" transform="translate(-164.72 -165.43)"/></svg>