<svg width="537" height="538" viewBox="0 0 537 538" fill="none" xmlns="http://www.w3.org/2000/svg">
<g clip-path="url(#clip0_427_2)">
<path fill-rule="evenodd" clip-rule="evenodd" d="M216.959 288.217L216.95 288.23H216.99C216.98 288.226 216.969 288.222 216.959 288.217ZM355.088 162.611C355.088 162.611 355.088 162.611 355.088 162.611Z" fill="black"/>
<path d="M371.87 258.33C371.328 257.898 370.841 257.401 370.42 256.85C366.66 249.61 363.27 242.13 359.02 235.19C357.45 232.62 355.8 230.08 354.4 227.39C353.4 225.46 352.02 225.39 350.6 227.06C350.037 227.67 349.544 228.341 349.13 229.06C342.3 243.06 331.98 254.58 321.88 266.15C311.78 277.72 300 287.42 287.87 296.62C280.223 302.51 272.185 307.872 263.81 312.67C257.18 316.41 250.38 320.18 243.9 324.37C239.24 327.37 233.14 328.08 227.97 330.43C213.36 337.09 193.29 341.82 183.39 343.96C180.39 344.6 177.39 345.3 174.39 345.69C171.39 346.08 169.87 348.21 171.69 350.64C176.97 357.72 180.37 365.9 185.21 373.23C186.12 374.6 186.85 376.11 187.86 377.41C189.23 379.18 190.44 378.78 192.78 378.23C198.14 376.98 203.39 375.36 208.71 374.11C216.664 372.187 224.463 369.67 232.04 366.58C240.84 363.06 249.5 359.1 258.15 355.2C265.836 351.666 273.267 347.602 280.39 343.04C288.668 337.948 296.678 332.434 304.39 326.52C312.62 320.1 321.39 314.42 328.81 306.97C334.19 301.56 339.49 296.06 345.02 290.81C354.78 281.55 362.65 270.81 370.52 259.97C371.01 259.4 371.48 258.84 371.87 258.33Z" fill="black"/>
<path d="M218.69 285.67C222.69 279.67 226.69 273.67 230.6 267.67C231.89 265.67 234.27 263.24 233.82 261.67C233.2 259.45 230.43 257.81 228.49 256.01C228.17 255.71 227.22 256.1 226.85 255.8C218.63 249.19 209.01 244.8 200.43 238.67C194 234.09 186.67 230.8 179.93 226.67C177.77 225.33 176.64 226.14 175.67 227.59C173.85 230.33 172.4 233.3 170.62 236.06C167.92 240.24 164.95 244.26 162.33 248.49C159.46 253.12 159.68 253.03 164.49 255.91C172.74 260.91 180.89 265.98 189 271.16C196 275.63 202.81 280.34 209.79 284.8C212.114 286.072 214.508 287.212 216.959 288.217L217.068 288.06C217.702 287.14 218.209 286.405 218.69 285.67Z" fill="black"/>
<path d="M272.11 204.57C270.41 203.02 268.94 200.91 266.37 199.38C260.47 195.88 254.83 191.94 248.98 188.38C239.22 182.38 229.86 175.74 219.43 170.78C216.43 169.35 215.25 169.78 213.88 171.78C211.88 174.68 210.2 177.87 208.24 180.84C205.64 184.75 202.69 188.46 200.24 192.48C199.09 194.41 197.88 196.01 201.8 198.14C207.99 201.52 214.1 205.28 220.12 209.05C231.12 215.94 241.71 223.39 252.43 230.68C254.08 231.79 255.17 231.2 256.05 229.92C261.05 222.64 266.007 215.33 270.92 207.99C271.446 206.895 271.858 205.749 272.15 204.57H272.11Z" fill="black"/>
<path d="M327.67 220.84C334.2 217.79 340.13 215.11 345.98 212.26C348.06 211.26 346.18 210.32 345.78 209.15C342.03 198.15 334.08 189.48 329.43 178.99C328.55 176.99 326.27 175.57 324.53 173.99C324.253 173.842 323.947 173.759 323.634 173.745C323.321 173.731 323.009 173.787 322.72 173.91C317.48 176.13 312.2 178.27 307.1 180.77C304.63 181.99 304.44 183.77 306.26 185.55C311.26 190.55 313.99 196.97 317.37 202.95C320.03 207.66 322.03 212.75 324.55 217.55C325.26 218.94 326.74 219.9 327.67 220.84Z" fill="black"/>
<path d="M382.96 198.36C382.44 197.36 382.12 196.6 381.7 195.91C375.29 185.37 368.91 174.82 362.4 164.34C361.528 162.851 360.223 161.662 358.66 160.93C357.81 160.61 356.34 162.09 355.09 162.61C355.09 162.61 355.088 162.611 355.088 162.611C350.829 164.351 346.569 166.09 342.25 167.7C338.9 168.94 338.32 170.49 340.31 173.62C340.426 173.866 340.57 174.098 340.74 174.31C348.36 181.85 352.23 191.82 357.94 200.61C358.99 202.23 359.86 204.16 361.32 205.28C362.48 206.17 365.09 206.87 365.89 206.22C370.29 202.63 375.89 201.97 380.73 199.45C381.43 199.1 382.11 198.84 383 198.36H382.96Z" fill="black"/>
</g>
<defs>
<clipPath id="clip0_427_2">
<rect width="536.41" height="537.77" fill="white"/>
</clipPath>
</defs>
</svg>
